<svg width="81" height="32" viewBox="0 0 81 32" fill="none" xmlns="http://www.w3.org/2000/svg">
<path d="M17.4389 6H17.9802C19.8593 6.04112 21.7079 6.80187 23.0356 8.1486C22.5454 8.65234 22.0449 9.13552 21.5649 9.63926C20.8194 8.96075 19.9206 8.43645 18.9402 8.2514C17.4899 7.94299 15.9274 8.22056 14.712 9.05327C13.3843 9.92711 12.4856 11.4075 12.2915 12.9907C12.0771 14.5533 12.5162 16.1981 13.5273 17.4112C14.4975 18.5935 15.9784 19.3337 17.5104 19.3851C18.9402 19.4673 20.4313 19.0252 21.473 18.0178C22.29 17.3084 22.6679 16.229 22.7905 15.1804C21.0951 15.1804 19.3998 15.1907 17.7044 15.1804V13.0626H24.8433C25.2109 15.3346 24.6799 17.8944 22.9641 19.5187C21.8202 20.6701 20.2372 21.3486 18.6236 21.4823C17.061 21.6365 15.4473 21.3383 14.0584 20.5776C12.3937 19.6832 11.066 18.172 10.4124 16.3935C9.79958 14.7589 9.78936 12.9084 10.3613 11.2636C10.8822 9.76262 11.883 8.43645 13.1699 7.51122C14.4056 6.59626 15.9069 6.09252 17.4389 6Z" fill="#3780FF"/>
<path d="M58.3929 6.53455H60.5784V21.2149C59.8533 21.2149 59.118 21.2252 58.3929 21.2047C58.4031 16.3215 58.3929 11.428 58.3929 6.53455Z" fill="#38B137"/>
<path d="M29.7046 11.6233C31.0528 11.3663 32.5132 11.6542 33.6264 12.4663C34.6375 13.1859 35.3422 14.3168 35.5567 15.5504C35.8324 16.9794 35.4852 18.542 34.566 19.6729C33.5754 20.9373 31.9515 21.6158 30.3685 21.513C28.9182 21.4308 27.5089 20.7009 26.651 19.5084C25.6807 18.1925 25.4458 16.3831 25.9769 14.8411C26.508 13.1859 28.0093 11.9214 29.7046 11.6233ZM30.011 13.5766C29.4595 13.7205 28.9489 14.0392 28.5812 14.4915C27.5906 15.6841 27.6518 17.6271 28.7446 18.7373C29.3676 19.3747 30.3072 19.6729 31.1753 19.4981C31.9821 19.3542 32.6868 18.8093 33.0749 18.0897C33.749 16.8663 33.5549 15.1803 32.5234 14.2243C31.8596 13.6074 30.8894 13.3504 30.011 13.5766Z" fill="#FA3913"/>
<path d="M40.5304 11.6233C42.0725 11.3252 43.7577 11.757 44.9117 12.8467C46.7909 14.543 46.9952 17.7196 45.3918 19.6729C44.4215 20.9065 42.8487 21.585 41.2964 21.5131C39.8155 21.4719 38.355 20.7317 37.4767 19.5084C36.486 18.1616 36.2716 16.3112 36.8333 14.7383C37.395 13.1345 38.8657 11.9112 40.5304 11.6233ZM40.8368 13.5766C40.2853 13.7205 39.7746 14.0392 39.407 14.4813C38.4265 15.6532 38.4674 17.5654 39.5193 18.6859C40.1423 19.3542 41.1125 19.6831 42.0113 19.4981C42.8079 19.3439 43.5228 18.8093 43.9109 18.0897C44.5747 16.856 44.3807 15.1701 43.3389 14.214C42.6751 13.5972 41.7049 13.3504 40.8368 13.5766Z" fill="#FCBD06"/>
<path d="M49.7118 12.2196C50.8863 11.4794 52.4489 11.2738 53.7153 11.9112C54.1136 12.086 54.4404 12.3841 54.757 12.6822C54.7673 12.4047 54.757 12.1168 54.7673 11.829C55.4515 11.8392 56.1358 11.829 56.8303 11.8392V20.9065C56.8201 22.2738 56.4728 23.7234 55.4924 24.7206C54.42 25.8206 52.7757 26.1598 51.2949 25.9336C49.7118 25.6972 48.3331 24.5355 47.7203 23.0654C48.3331 22.7673 48.9765 22.5308 49.6097 22.2533C49.9672 23.0963 50.6923 23.8159 51.6012 23.9804C52.5102 24.1449 53.5621 23.9187 54.1545 23.1579C54.7877 22.3766 54.7877 21.3075 54.757 20.3514C54.2873 20.814 53.746 21.2252 53.0923 21.3794C51.6727 21.7804 50.1101 21.2869 49.0174 20.3206C47.9144 19.3542 47.2607 17.8635 47.322 16.3832C47.3526 14.7075 48.2922 13.0934 49.7118 12.2196ZM51.8259 13.5355C51.2029 13.6383 50.6208 13.9878 50.2225 14.471C49.2625 15.6224 49.2625 17.4626 50.2327 18.5934C50.7842 19.2617 51.6727 19.6318 52.5306 19.5392C53.3374 19.457 54.083 18.943 54.4813 18.2336C55.1554 17.0308 55.043 15.3962 54.1341 14.3476C53.5723 13.7 52.6736 13.3813 51.8259 13.5355Z" fill="#3780FF"/>
<path d="M63.2032 12.7439C64.4287 11.5925 66.3181 11.2018 67.8909 11.8084C69.382 12.3738 70.3318 13.8028 70.8118 15.2729C68.5956 16.1981 66.3896 17.1131 64.1734 18.0383C64.4798 18.6243 64.9496 19.1589 65.5828 19.3747C66.4713 19.6934 67.5335 19.5803 68.279 18.9841C68.5752 18.7579 68.8101 18.4598 69.0348 18.1719C69.5965 18.5523 70.1582 18.9224 70.7199 19.3028C69.9233 20.5056 68.5854 21.3486 67.1454 21.4822C65.5521 21.6775 63.8568 21.0607 62.8253 19.8065C61.1299 17.8327 61.2933 14.5224 63.2032 12.7439ZM64.296 14.6458C63.9487 15.1495 63.8057 15.7663 63.8159 16.3729C65.2968 15.756 66.7777 15.1392 68.2586 14.5121C68.0135 13.9364 67.4211 13.5869 66.8186 13.4944C65.8483 13.3196 64.8372 13.8439 64.296 14.6458Z" fill="#FA3913"/>
</svg>
