<svg width="114" height="32" viewBox="0 0 114 32" fill="none" xmlns="http://www.w3.org/2000/svg">
<path d="M49 9.99999V22H46.9166V12.5833H46.8889L43.1666 22H41.7777L37.9722 12.5833H37.9444V22H36.0278V9.99999H39.0277L42.4722 18.8889H42.5277L46.1666 9.99999H49ZM50.7222 10.9167C50.7222 10.5833 50.8333 10.3055 51.0833 10.0833C51.3333 9.8611 51.6111 9.74999 51.9444 9.74999C52.3055 9.74999 52.6111 9.8611 52.8333 10.0833C53.0555 10.3055 53.1944 10.5833 53.1944 10.9167C53.1944 11.25 53.0833 11.5278 52.8333 11.75C52.5833 11.9722 52.3055 12.0833 51.9444 12.0833C51.5833 12.0833 51.3055 11.9722 51.0833 11.75C50.8611 11.5 50.7222 11.2222 50.7222 10.9167ZM52.9722 13.3889V22H50.9444V13.3889H52.9722ZM59.1111 20.5277C59.4166 20.5277 59.75 20.4722 60.1111 20.3055C60.4722 20.1667 60.8055 19.9722 61.1111 19.75V21.6389C60.7777 21.8333 60.4166 21.9722 60 22.0555C59.5833 22.1389 59.1389 22.1944 58.6389 22.1944C57.3611 22.1944 56.3333 21.8055 55.5555 21C54.75 20.1944 54.3611 19.1667 54.3611 17.9444C54.3611 16.5555 54.7777 15.4167 55.5833 14.5278C56.3889 13.6389 57.5277 13.1944 59.0277 13.1944C59.4166 13.1944 59.8055 13.25 60.1666 13.3333C60.5555 13.4167 60.8611 13.5555 61.0833 13.6667V15.6111C60.7777 15.3889 60.4444 15.1944 60.1389 15.0833C59.8055 14.9722 59.4722 14.8889 59.1389 14.8889C58.3333 14.8889 57.6944 15.1389 57.1944 15.6666C56.6944 16.1944 56.4722 16.8889 56.4722 17.7778C56.4722 18.6389 56.7222 19.3333 57.1944 19.8055C57.6666 20.2778 58.3055 20.5277 59.1111 20.5277ZM66.8611 13.25C67.0277 13.25 67.1666 13.25 67.3055 13.2778C67.4444 13.3055 67.5555 13.3333 67.6389 13.3611V15.4167C67.5277 15.3333 67.3889 15.25 67.1666 15.1944C66.9444 15.1389 66.7222 15.0833 66.4166 15.0833C65.9166 15.0833 65.5 15.3055 65.1666 15.7222C64.8333 16.1389 64.6389 16.7778 64.6389 17.6667V22H62.6111V13.3889H64.6389V14.75H64.6666C64.8611 14.2778 65.1389 13.9167 65.5 13.6389C65.8889 13.3889 66.3333 13.25 66.8611 13.25ZM67.75 17.8333C67.75 16.4166 68.1666 15.2778 68.9444 14.4444C69.75 13.6111 70.8611 13.1944 72.2777 13.1944C73.6111 13.1944 74.6666 13.5833 75.4166 14.3889C76.1666 15.1944 76.5555 16.2778 76.5555 17.6389C76.5555 19.0278 76.1389 20.1389 75.3611 20.9722C74.5555 21.8055 73.4722 22.2222 72.0833 22.2222C70.75 22.2222 69.6944 21.8333 68.9166 21.0555C68.1389 20.25 67.75 19.1666 67.75 17.8333ZM69.8611 17.75C69.8611 18.6389 70.0555 19.3333 70.4722 19.8055C70.8889 20.2778 71.4722 20.5277 72.2222 20.5277C72.9444 20.5277 73.5278 20.3055 73.9166 19.8055C74.3055 19.3333 74.5 18.6389 74.5 17.6944C74.5 16.7777 74.3055 16.0833 73.9166 15.5833C73.5278 15.1111 72.9444 14.8611 72.25 14.8611C71.5 14.8611 70.9444 15.1111 70.5277 15.6111C70.0555 16.1389 69.8611 16.8333 69.8611 17.75ZM79.5833 15.6666C79.5833 15.9444 79.6666 16.1944 79.8611 16.3611C80.0555 16.5277 80.4444 16.7222 81.0833 16.9722C81.8889 17.3055 82.4722 17.6667 82.7777 18.0555C83.1111 18.4722 83.2777 18.9444 83.2777 19.5278C83.2777 20.3333 82.9722 20.9722 82.3333 21.4722C81.7222 21.9722 80.8611 22.1944 79.8055 22.1944C79.4444 22.1944 79.0555 22.1389 78.6111 22.0555C78.1666 21.9722 77.8055 21.8611 77.5 21.7222V19.7222C77.8611 19.9722 78.2777 20.1944 78.6944 20.3333C79.1111 20.4722 79.5 20.5555 79.8611 20.5555C80.3055 20.5555 80.6666 20.5 80.8611 20.3611C81.0833 20.2222 81.1944 20.0278 81.1944 19.7222C81.1944 19.4444 81.0833 19.2222 80.8611 19C80.6389 18.8055 80.1944 18.5833 79.5833 18.3333C78.8333 18.0278 78.3055 17.6666 78 17.2777C77.6944 16.8889 77.5277 16.3889 77.5277 15.7778C77.5277 15 77.8333 14.3611 78.4444 13.8611C79.0555 13.3611 79.8611 13.1111 80.8333 13.1111C81.1389 13.1111 81.4722 13.1389 81.8333 13.2222C82.1944 13.3055 82.5277 13.3889 82.7777 13.4722V15.4444C82.5 15.2778 82.1944 15.1111 81.8333 14.9722C81.4722 14.8333 81.1111 14.7778 80.7777 14.7778C80.3889 14.7778 80.0833 14.8611 79.8889 15C79.6944 15.1944 79.5833 15.3889 79.5833 15.6666ZM84.1389 17.8333C84.1389 16.4166 84.5555 15.2778 85.3333 14.4444C86.1389 13.6111 87.25 13.1944 88.6666 13.1944C90 13.1944 91.0555 13.5833 91.8055 14.3889C92.5555 15.1944 92.9444 16.2778 92.9444 17.6389C92.9444 19.0278 92.5277 20.1389 91.75 20.9722C90.9444 21.8055 89.8611 22.2222 88.4722 22.2222C87.1389 22.2222 86.0833 21.8333 85.3055 21.0555C84.5555 20.25 84.1389 19.1666 84.1389 17.8333ZM86.25 17.75C86.25 18.6389 86.4444 19.3333 86.8611 19.8055C87.2777 20.2778 87.8611 20.5277 88.6111 20.5277C89.3333 20.5277 89.9166 20.3055 90.3055 19.8055C90.6944 19.3333 90.8889 18.6389 90.8889 17.6944C90.8889 16.7777 90.6944 16.0833 90.3055 15.5833C89.9166 15.1111 89.3333 14.8611 88.6389 14.8611C87.8889 14.8611 87.3333 15.1111 86.9166 15.6111C86.4722 16.1389 86.25 16.8333 86.25 17.75ZM99.6944 15.0555H96.6666V22H94.6111V15.0555H93.1666V13.3889H94.6111V12.1944C94.6111 11.3055 94.9166 10.5555 95.5 9.97221C96.0833 9.38888 96.8333 9.1111 97.75 9.1111C98 9.1111 98.2222 9.13888 98.4166 9.13888C98.6111 9.13888 98.7778 9.19443 98.9166 9.24999V11C98.8611 10.9722 98.7222 10.9167 98.5555 10.8611C98.3889 10.8055 98.1944 10.7778 97.9722 10.7778C97.5555 10.7778 97.2222 10.9167 97 11.1667C96.7777 11.4167 96.6666 11.8333 96.6666 12.3333V13.3611H99.6944V11.4167L101.722 10.8055V13.3611H103.778V15.0278H101.722V19.0555C101.722 19.5833 101.833 19.9444 102 20.1667C102.194 20.3889 102.5 20.5 102.917 20.5C103.028 20.5 103.167 20.4722 103.333 20.4167C103.5 20.3611 103.639 20.3055 103.75 20.2222V21.8889C103.611 21.9722 103.417 22.0278 103.111 22.0833C102.806 22.1389 102.528 22.1667 102.222 22.1667C101.361 22.1667 100.722 21.9444 100.306 21.5C99.8889 21.0555 99.6666 20.3611 99.6666 19.4444L99.6944 15.0555Z" fill="#737373"/>
<path d="M19.5 6H10V15.5H19.5V6Z" fill="#F25022"/>
<path d="M29.9999 6H20.4999V15.5H29.9999V6Z" fill="#7FBA00"/>
<path d="M19.5 16.5H10V26H19.5V16.5Z" fill="#00A4EF"/>
<path d="M29.9999 16.5H20.4999V26H29.9999V16.5Z" fill="#FFB900"/>
</svg>
